<svg width="128" height="128" viewBox="0 0 128 128" fill="none" xmlns="http://www.w3.org/2000/svg">
<path d="M0 0H128V62.5778V128H0V0Z" fill="url(#paint0_linear)"/>
<g filter="url(#filter0_d)">
<path d="M62 43.1547C63.2376 42.4402 64.7624 42.4402 66 43.1547L81.0526 51.8453C82.2902 52.5598 83.0526 53.8803 83.0526 55.3094V72.6906C83.0526 74.1197 82.2902 75.4402 81.0526 76.1547L66 84.8453C64.7624 85.5598 63.2376 85.5598 62 84.8453L46.9474 76.1547C45.7098 75.4402 44.9474 74.1197 44.9474 72.6906V55.3094C44.9474 53.8803 45.7098 52.5598 46.9474 51.8453L62 43.1547Z" fill="white" fill-opacity="0.9"/>
</g>
<g filter="url(#filter1_d)">
<path d="M24.0403 35.4295L24.0403 29.1067C24.0403 26.331 26.2869 24.0746 29.0505 24.0746L35.2994 24.0746" stroke="white" stroke-opacity="0.25" stroke-width="2.5"/>
</g>
<g filter="url(#filter2_d)">
<path d="M103.96 35.4295L103.96 29.1067C103.96 26.331 101.713 24.0746 98.9495 24.0746L92.7006 24.0746" stroke="white" stroke-opacity="0.25" stroke-width="2.5"/>
</g>
<g filter="url(#filter3_d)">
<path d="M24.0403 92.3871L24.0403 98.7099C24.0403 101.486 26.2869 103.742 29.0505 103.742L35.2994 103.742" stroke="white" stroke-opacity="0.25" stroke-width="2.5"/>
</g>
<g filter="url(#filter4_d)">
<path d="M103.96 92.5705L103.96 98.8933C103.96 101.669 101.713 103.925 98.9495 103.925L92.7006 103.925" stroke="white" stroke-opacity="0.25" stroke-width="2.5"/>
</g>
<defs>
<filter id="filter0_d" x="40.9474" y="40.6188" width="46.1051" height="50.7624" filterUnits="userSpaceOnUse" color-interpolation-filters="sRGB">
<feFlood flood-opacity="0" result="BackgroundImageFix"/>
<feColorMatrix in="SourceAlpha" type="matrix" values="0 0 0 0 0 0 0 0 0 0 0 0 0 0 0 0 0 0 127 0"/>
<feOffset dy="2"/>
<feGaussianBlur stdDeviation="2"/>
<feColorMatrix type="matrix" values="0 0 0 0 0 0 0 0 0 0 0 0 0 0 0 0 0 0 0.25 0"/>
<feBlend mode="normal" in2="BackgroundImageFix" result="effect1_dropShadow"/>
<feBlend mode="normal" in="SourceGraphic" in2="effect1_dropShadow" result="shape"/>
</filter>
<filter id="filter1_d" x="17.793" y="18.8219" width="22.5117" height="22.6129" filterUnits="userSpaceOnUse" color-interpolation-filters="sRGB">
<feFlood flood-opacity="0" result="BackgroundImageFix"/>
<feColorMatrix in="SourceAlpha" type="matrix" values="0 0 0 0 0 0 0 0 0 0 0 0 0 0 0 0 0 0 127 0"/>
<feOffset dy="1"/>
<feGaussianBlur stdDeviation="2.5"/>
<feColorMatrix type="matrix" values="0 0 0 0 0 0 0 0 0 0 0 0 0 0 0 0 0 0 0.25 0"/>
<feBlend mode="normal" in2="BackgroundImageFix" result="effect1_dropShadow"/>
<feBlend mode="normal" in="SourceGraphic" in2="effect1_dropShadow" result="shape"/>
</filter>
<filter id="filter2_d" x="87.6953" y="18.8219" width="22.5117" height="22.6129" filterUnits="userSpaceOnUse" color-interpolation-filters="sRGB">
<feFlood flood-opacity="0" result="BackgroundImageFix"/>
<feColorMatrix in="SourceAlpha" type="matrix" values="0 0 0 0 0 0 0 0 0 0 0 0 0 0 0 0 0 0 127 0"/>
<feOffset dy="1"/>
<feGaussianBlur stdDeviation="2.5"/>
<feColorMatrix type="matrix" values="0 0 0 0 0 0 0 0 0 0 0 0 0 0 0 0 0 0 0.25 0"/>
<feBlend mode="normal" in2="BackgroundImageFix" result="effect1_dropShadow"/>
<feBlend mode="normal" in="SourceGraphic" in2="effect1_dropShadow" result="shape"/>
</filter>
<filter id="filter3_d" x="17.793" y="88.3818" width="22.5117" height="22.6129" filterUnits="userSpaceOnUse" color-interpolation-filters="sRGB">
<feFlood flood-opacity="0" result="BackgroundImageFix"/>
<feColorMatrix in="SourceAlpha" type="matrix" values="0 0 0 0 0 0 0 0 0 0 0 0 0 0 0 0 0 0 127 0"/>
<feOffset dy="1"/>
<feGaussianBlur stdDeviation="2.5"/>
<feColorMatrix type="matrix" values="0 0 0 0 0 0 0 0 0 0 0 0 0 0 0 0 0 0 0.25 0"/>
<feBlend mode="normal" in2="BackgroundImageFix" result="effect1_dropShadow"/>
<feBlend mode="normal" in="SourceGraphic" in2="effect1_dropShadow" result="shape"/>
</filter>
<filter id="filter4_d" x="87.6953" y="88.5652" width="22.5117" height="22.6129" filterUnits="userSpaceOnUse" color-interpolation-filters="sRGB">
<feFlood flood-opacity="0" result="BackgroundImageFix"/>
<feColorMatrix in="SourceAlpha" type="matrix" values="0 0 0 0 0 0 0 0 0 0 0 0 0 0 0 0 0 0 127 0"/>
<feOffset dy="1"/>
<feGaussianBlur stdDeviation="2.5"/>
<feColorMatrix type="matrix" values="0 0 0 0 0 0 0 0 0 0 0 0 0 0 0 0 0 0 0.25 0"/>
<feBlend mode="normal" in2="BackgroundImageFix" result="effect1_dropShadow"/>
<feBlend mode="normal" in="SourceGraphic" in2="effect1_dropShadow" result="shape"/>
</filter>
<linearGradient id="paint0_linear" x1="0" y1="0" x2="128" y2="128" gradientUnits="userSpaceOnUse">
<stop stop-color="#2196F3"/>
<stop offset="1" stop-color="#1976D2"/>
</linearGradient>
</defs>
</svg>
