<svg width="64" height="64" viewBox="0 0 64 64" fill="none" xmlns="http://www.w3.org/2000/svg">
<g clip-path="url(#clip0)">
<path d="M0 0H64V31.2889V64H0V0Z" fill="url(#paint0_linear)"/>
<g filter="url(#filter0_d)">
<path d="M2.93839 11.2214L2.93839 7.99544C2.93839 5.21975 5.18497 2.96336 7.94859 2.96336L11.1269 2.96337" stroke="white" stroke-opacity="0.25" stroke-width="2.5"/>
</g>
<g filter="url(#filter1_d)">
<path d="M61.0616 11.2214L61.0616 7.99544C61.0616 5.21975 58.815 2.96336 56.0514 2.96336L52.8731 2.96337" stroke="white" stroke-opacity="0.25" stroke-width="2.5"/>
</g>
<g filter="url(#filter2_d)">
<path d="M2.93839 52.6452L2.93839 55.8711C2.93839 58.6468 5.18497 60.9032 7.94859 60.9032L11.1269 60.9032" stroke="white" stroke-opacity="0.25" stroke-width="2.5"/>
</g>
<g filter="url(#filter3_d)">
<path d="M61.0616 52.7786L61.0616 56.0046C61.0616 58.7803 58.815 61.0366 56.0514 61.0366L52.8731 61.0366" stroke="white" stroke-opacity="0.25" stroke-width="2.5"/>
</g>
<path d="M37.1716 21.1716C37.9217 20.4214 38.9391 20 40 20C41.0609 20 42.0783 20.4214 42.8284 21.1716C43.5786 21.9217 44 22.9391 44 24C44 25.0609 43.5786 26.0783 42.8284 26.8284L40 24L37.1716 21.1716Z" fill="white" fill-opacity="0.9"/>
<rect x="32" y="16" width="22.3137" height="22.3138" rx="6" transform="rotate(45 32 16)" fill="white" fill-opacity="0.9"/>
<path d="M26.8284 21.1716C27.1999 21.543 27.4945 21.984 27.6955 22.4693C27.8965 22.9546 28 23.4747 28 24C28 24.5253 27.8965 25.0454 27.6955 25.5307C27.4945 26.016 27.1999 26.457 26.8284 26.8284C26.457 27.1999 26.016 27.4945 25.5307 27.6955C25.0454 27.8965 24.5253 28 24 28C23.4747 28 22.9546 27.8965 22.4693 27.6955C21.984 27.4945 21.543 27.1999 21.1716 26.8284L24 24L26.8284 21.1716Z" fill="url(#paint1_linear)"/>
</g>
<defs>
<filter id="filter0_d" x="-3.30888" y="-2.28935" width="19.441" height="19.5161" filterUnits="userSpaceOnUse" color-interpolation-filters="sRGB">
<feFlood flood-opacity="0" result="BackgroundImageFix"/>
<feColorMatrix in="SourceAlpha" type="matrix" values="0 0 0 0 0 0 0 0 0 0 0 0 0 0 0 0 0 0 127 0"/>
<feOffset dy="1"/>
<feGaussianBlur stdDeviation="2.5"/>
<feColorMatrix type="matrix" values="0 0 0 0 0 0 0 0 0 0 0 0 0 0 0 0 0 0 0.25 0"/>
<feBlend mode="normal" in2="BackgroundImageFix" result="effect1_dropShadow"/>
<feBlend mode="normal" in="SourceGraphic" in2="effect1_dropShadow" result="shape"/>
</filter>
<filter id="filter1_d" x="47.8679" y="-2.28935" width="19.441" height="19.5161" filterUnits="userSpaceOnUse" color-interpolation-filters="sRGB">
<feFlood flood-opacity="0" result="BackgroundImageFix"/>
<feColorMatrix in="SourceAlpha" type="matrix" values="0 0 0 0 0 0 0 0 0 0 0 0 0 0 0 0 0 0 127 0"/>
<feOffset dy="1"/>
<feGaussianBlur stdDeviation="2.5"/>
<feColorMatrix type="matrix" values="0 0 0 0 0 0 0 0 0 0 0 0 0 0 0 0 0 0 0.25 0"/>
<feBlend mode="normal" in2="BackgroundImageFix" result="effect1_dropShadow"/>
<feBlend mode="normal" in="SourceGraphic" in2="effect1_dropShadow" result="shape"/>
</filter>
<filter id="filter2_d" x="-3.30888" y="48.6399" width="19.441" height="19.5161" filterUnits="userSpaceOnUse" color-interpolation-filters="sRGB">
<feFlood flood-opacity="0" result="BackgroundImageFix"/>
<feColorMatrix in="SourceAlpha" type="matrix" values="0 0 0 0 0 0 0 0 0 0 0 0 0 0 0 0 0 0 127 0"/>
<feOffset dy="1"/>
<feGaussianBlur stdDeviation="2.5"/>
<feColorMatrix type="matrix" values="0 0 0 0 0 0 0 0 0 0 0 0 0 0 0 0 0 0 0.25 0"/>
<feBlend mode="normal" in2="BackgroundImageFix" result="effect1_dropShadow"/>
<feBlend mode="normal" in="SourceGraphic" in2="effect1_dropShadow" result="shape"/>
</filter>
<filter id="filter3_d" x="47.8679" y="48.7733" width="19.441" height="19.5161" filterUnits="userSpaceOnUse" color-interpolation-filters="sRGB">
<feFlood flood-opacity="0" result="BackgroundImageFix"/>
<feColorMatrix in="SourceAlpha" type="matrix" values="0 0 0 0 0 0 0 0 0 0 0 0 0 0 0 0 0 0 127 0"/>
<feOffset dy="1"/>
<feGaussianBlur stdDeviation="2.5"/>
<feColorMatrix type="matrix" values="0 0 0 0 0 0 0 0 0 0 0 0 0 0 0 0 0 0 0.25 0"/>
<feBlend mode="normal" in2="BackgroundImageFix" result="effect1_dropShadow"/>
<feBlend mode="normal" in="SourceGraphic" in2="effect1_dropShadow" result="shape"/>
</filter>
<linearGradient id="paint0_linear" x1="0" y1="0" x2="64" y2="64" gradientUnits="userSpaceOnUse">
<stop stop-color="#F39F21"/>
<stop offset="1" stop-color="#D23A19"/>
</linearGradient>
<linearGradient id="paint1_linear" x1="-3.07952e-07" y1="-6.43327e-07" x2="64" y2="63.5" gradientUnits="userSpaceOnUse">
<stop stop-color="#F39F21"/>
<stop offset="1" stop-color="#D23A19"/>
</linearGradient>
<clipPath id="clip0">
<rect width="64" height="64" fill="white"/>
</clipPath>
</defs>
</svg>
