<svg width="64" height="64" viewBox="0 0 64 64" fill="none" xmlns="http://www.w3.org/2000/svg">
<g clip-path="url(#clip0)">
<path d="M0 0H64V31.2889V64H0V0Z" fill="url(#paint0_linear)"/>
<g filter="url(#filter0_d)">
<path d="M30 17.1547C31.2376 16.4402 32.7624 16.4402 34 17.1547L43.8564 22.8453C45.094 23.5598 45.8564 24.8803 45.8564 26.3094V37.6906C45.8564 39.1197 45.094 40.4402 43.8564 41.1547L34 46.8453C32.7624 47.5598 31.2376 47.5598 30 46.8453L20.1436 41.1547C18.906 40.4402 18.1436 39.1197 18.1436 37.6906V26.3094C18.1436 24.8803 18.906 23.5598 20.1436 22.8453L30 17.1547Z" fill="white" fill-opacity="0.9"/>
</g>
<g filter="url(#filter1_d)">
<path d="M2.93839 11.2214L2.93839 7.99544C2.93839 5.21975 5.18497 2.96336 7.94859 2.96336L11.1269 2.96337" stroke="white" stroke-opacity="0.25" stroke-width="2.5"/>
</g>
<g filter="url(#filter2_d)">
<path d="M61.0616 11.2214L61.0616 7.99544C61.0616 5.21975 58.815 2.96336 56.0514 2.96336L52.8731 2.96337" stroke="white" stroke-opacity="0.25" stroke-width="2.5"/>
</g>
<g filter="url(#filter3_d)">
<path d="M2.93839 52.6452L2.93839 55.8711C2.93839 58.6468 5.18497 60.9032 7.94859 60.9032L11.1269 60.9032" stroke="white" stroke-opacity="0.25" stroke-width="2.5"/>
</g>
<g filter="url(#filter4_d)">
<path d="M61.0616 52.7786L61.0616 56.0046C61.0616 58.7803 58.815 61.0366 56.0514 61.0366L52.8731 61.0366" stroke="white" stroke-opacity="0.25" stroke-width="2.5"/>
</g>
</g>
<defs>
<filter id="filter0_d" x="14.1436" y="14.6188" width="35.7128" height="38.7624" filterUnits="userSpaceOnUse" color-interpolation-filters="sRGB">
<feFlood flood-opacity="0" result="BackgroundImageFix"/>
<feColorMatrix in="SourceAlpha" type="matrix" values="0 0 0 0 0 0 0 0 0 0 0 0 0 0 0 0 0 0 127 0"/>
<feOffset dy="2"/>
<feGaussianBlur stdDeviation="2"/>
<feColorMatrix type="matrix" values="0 0 0 0 0 0 0 0 0 0 0 0 0 0 0 0 0 0 0.25 0"/>
<feBlend mode="normal" in2="BackgroundImageFix" result="effect1_dropShadow"/>
<feBlend mode="normal" in="SourceGraphic" in2="effect1_dropShadow" result="shape"/>
</filter>
<filter id="filter1_d" x="-3.30887" y="-2.28935" width="19.441" height="19.5161" filterUnits="userSpaceOnUse" color-interpolation-filters="sRGB">
<feFlood flood-opacity="0" result="BackgroundImageFix"/>
<feColorMatrix in="SourceAlpha" type="matrix" values="0 0 0 0 0 0 0 0 0 0 0 0 0 0 0 0 0 0 127 0"/>
<feOffset dy="1"/>
<feGaussianBlur stdDeviation="2.5"/>
<feColorMatrix type="matrix" values="0 0 0 0 0 0 0 0 0 0 0 0 0 0 0 0 0 0 0.25 0"/>
<feBlend mode="normal" in2="BackgroundImageFix" result="effect1_dropShadow"/>
<feBlend mode="normal" in="SourceGraphic" in2="effect1_dropShadow" result="shape"/>
</filter>
<filter id="filter2_d" x="47.8679" y="-2.28935" width="19.441" height="19.5161" filterUnits="userSpaceOnUse" color-interpolation-filters="sRGB">
<feFlood flood-opacity="0" result="BackgroundImageFix"/>
<feColorMatrix in="SourceAlpha" type="matrix" values="0 0 0 0 0 0 0 0 0 0 0 0 0 0 0 0 0 0 127 0"/>
<feOffset dy="1"/>
<feGaussianBlur stdDeviation="2.5"/>
<feColorMatrix type="matrix" values="0 0 0 0 0 0 0 0 0 0 0 0 0 0 0 0 0 0 0.25 0"/>
<feBlend mode="normal" in2="BackgroundImageFix" result="effect1_dropShadow"/>
<feBlend mode="normal" in="SourceGraphic" in2="effect1_dropShadow" result="shape"/>
</filter>
<filter id="filter3_d" x="-3.30887" y="48.6399" width="19.441" height="19.5161" filterUnits="userSpaceOnUse" color-interpolation-filters="sRGB">
<feFlood flood-opacity="0" result="BackgroundImageFix"/>
<feColorMatrix in="SourceAlpha" type="matrix" values="0 0 0 0 0 0 0 0 0 0 0 0 0 0 0 0 0 0 127 0"/>
<feOffset dy="1"/>
<feGaussianBlur stdDeviation="2.5"/>
<feColorMatrix type="matrix" values="0 0 0 0 0 0 0 0 0 0 0 0 0 0 0 0 0 0 0.25 0"/>
<feBlend mode="normal" in2="BackgroundImageFix" result="effect1_dropShadow"/>
<feBlend mode="normal" in="SourceGraphic" in2="effect1_dropShadow" result="shape"/>
</filter>
<filter id="filter4_d" x="47.8679" y="48.7733" width="19.441" height="19.5161" filterUnits="userSpaceOnUse" color-interpolation-filters="sRGB">
<feFlood flood-opacity="0" result="BackgroundImageFix"/>
<feColorMatrix in="SourceAlpha" type="matrix" values="0 0 0 0 0 0 0 0 0 0 0 0 0 0 0 0 0 0 127 0"/>
<feOffset dy="1"/>
<feGaussianBlur stdDeviation="2.5"/>
<feColorMatrix type="matrix" values="0 0 0 0 0 0 0 0 0 0 0 0 0 0 0 0 0 0 0.25 0"/>
<feBlend mode="normal" in2="BackgroundImageFix" result="effect1_dropShadow"/>
<feBlend mode="normal" in="SourceGraphic" in2="effect1_dropShadow" result="shape"/>
</filter>
<linearGradient id="paint0_linear" x1="0" y1="0" x2="64" y2="64" gradientUnits="userSpaceOnUse">
<stop stop-color="#2196F3"/>
<stop offset="1" stop-color="#1976D2"/>
</linearGradient>
<clipPath id="clip0">
<rect width="64" height="64" fill="white"/>
</clipPath>
</defs>
</svg>
