<svg width="256" height="144" viewBox="0 0 256 144" fill="none" xmlns="http://www.w3.org/2000/svg">
<path d="M0 0H256V70.4V144H0V0Z" fill="url(#paint0_linear)"/>
<g filter="url(#filter0_d)">
<path d="M62 57.1547C63.2376 56.4402 64.7624 56.4402 66 57.1547L75.8564 62.8453C77.094 63.5598 77.8564 64.8803 77.8564 66.3094V77.6906C77.8564 79.1197 77.094 80.4402 75.8564 81.1547L66 86.8453C64.7624 87.5598 63.2376 87.5598 62 86.8453L52.1436 81.1547C50.906 80.4402 50.1436 79.1197 50.1436 77.6906V66.3094C50.1436 64.8803 50.906 63.5598 52.1436 62.8453L62 57.1547Z" fill="white" fill-opacity="0.9"/>
</g>
<g filter="url(#filter1_bd)">
<path d="M34.9384 51.2214L34.9384 47.9954C34.9384 45.2197 37.185 42.9634 39.9486 42.9634L43.1269 42.9634" stroke="white" stroke-opacity="0.25" stroke-width="2.5"/>
</g>
<g filter="url(#filter2_bd)">
<path d="M93.0616 51.2214L93.0616 47.9954C93.0616 45.2197 90.815 42.9634 88.0514 42.9634L84.8731 42.9634" stroke="white" stroke-opacity="0.25" stroke-width="2.5"/>
</g>
<g filter="url(#filter3_bd)">
<path d="M34.9384 92.6452L34.9384 95.8711C34.9384 98.6468 37.185 100.903 39.9486 100.903L43.1269 100.903" stroke="white" stroke-opacity="0.25" stroke-width="2.5"/>
</g>
<g filter="url(#filter4_bd)">
<path d="M93.0616 92.7786L93.0616 96.0046C93.0616 98.7803 90.815 101.037 88.0514 101.037L84.8731 101.037" stroke="white" stroke-opacity="0.25" stroke-width="2.5"/>
</g>
<g filter="url(#filter5_d)">
<path d="M123.212 66.7C123.212 67.612 123.062 68.464 122.762 69.256C122.462 70.036 122.03 70.72 121.466 71.308C120.914 71.896 120.26 72.358 119.504 72.694C118.76 73.018 117.938 73.18 117.038 73.18C116.138 73.18 115.31 73.018 114.554 72.694C113.798 72.358 113.144 71.896 112.592 71.308C112.04 70.72 111.614 70.036 111.314 69.256C111.014 68.464 110.864 67.612 110.864 66.7C110.864 65.788 111.014 64.942 111.314 64.162C111.614 63.37 112.04 62.68 112.592 62.092C113.144 61.504 113.798 61.048 114.554 60.724C115.31 60.388 116.138 60.22 117.038 60.22C117.938 60.22 118.76 60.388 119.504 60.724C120.26 61.048 120.914 61.504 121.466 62.092C122.03 62.68 122.462 63.37 122.762 64.162C123.062 64.942 123.212 65.788 123.212 66.7ZM121.232 66.7C121.232 65.824 121.052 65.044 120.692 64.36C120.332 63.664 119.834 63.118 119.198 62.722C118.574 62.314 117.854 62.11 117.038 62.11C116.21 62.11 115.478 62.314 114.842 62.722C114.218 63.118 113.726 63.664 113.366 64.36C113.018 65.044 112.844 65.824 112.844 66.7C112.844 67.576 113.018 68.362 113.366 69.058C113.726 69.742 114.218 70.288 114.842 70.696C115.478 71.092 116.21 71.29 117.038 71.29C117.854 71.29 118.574 71.092 119.198 70.696C119.834 70.288 120.332 69.736 120.692 69.04C121.052 68.344 121.232 67.564 121.232 66.7ZM130.308 63.388C131.148 63.388 131.898 63.598 132.558 64.018C133.23 64.426 133.758 64.996 134.142 65.728C134.526 66.46 134.718 67.306 134.718 68.266C134.718 69.214 134.526 70.06 134.142 70.804C133.758 71.536 133.236 72.112 132.576 72.532C131.916 72.952 131.178 73.162 130.362 73.162C129.69 73.162 129.078 73.018 128.526 72.73C127.986 72.442 127.56 72.112 127.248 71.74V76.96H125.376V63.532H127.248V64.918C127.524 64.522 127.938 64.168 128.49 63.856C129.042 63.544 129.648 63.388 130.308 63.388ZM130.056 65.098C129.492 65.098 128.988 65.236 128.544 65.512C128.112 65.788 127.77 66.166 127.518 66.646C127.278 67.114 127.158 67.654 127.158 68.266C127.158 68.866 127.278 69.406 127.518 69.886C127.77 70.366 128.112 70.75 128.544 71.038C128.988 71.314 129.492 71.452 130.056 71.452C130.62 71.452 131.118 71.314 131.55 71.038C131.982 70.75 132.318 70.366 132.558 69.886C132.81 69.406 132.936 68.866 132.936 68.266C132.936 67.654 132.81 67.114 132.558 66.646C132.318 66.166 131.982 65.788 131.55 65.512C131.118 65.236 130.62 65.098 130.056 65.098ZM144.85 71.758H144.832C144.448 72.13 143.92 72.46 143.248 72.748C142.576 73.036 141.874 73.18 141.142 73.18C140.158 73.18 139.288 72.976 138.532 72.568C137.788 72.148 137.206 71.578 136.786 70.858C136.366 70.126 136.156 69.298 136.156 68.374C136.156 67.318 136.378 66.418 136.822 65.674C137.266 64.918 137.854 64.342 138.586 63.946C139.318 63.538 140.116 63.334 140.98 63.334C141.772 63.334 142.492 63.532 143.14 63.928C143.788 64.312 144.304 64.846 144.688 65.53C145.072 66.214 145.264 67.012 145.264 67.924L145.246 68.716H138.01C138.118 69.568 138.466 70.246 139.054 70.75C139.654 71.242 140.41 71.488 141.322 71.488C141.982 71.488 142.516 71.368 142.924 71.128C143.332 70.876 143.668 70.636 143.932 70.408L144.85 71.758ZM140.98 65.044C140.272 65.044 139.654 65.212 139.126 65.548C138.598 65.872 138.25 66.436 138.082 67.24H143.374V67.114C143.338 66.706 143.2 66.346 142.96 66.034C142.732 65.722 142.444 65.482 142.096 65.314C141.748 65.134 141.376 65.044 140.98 65.044ZM152.228 63.352C153.08 63.352 153.74 63.526 154.208 63.874C154.676 64.222 155 64.69 155.18 65.278C155.372 65.866 155.468 66.52 155.468 67.24V73H153.614V67.366C153.614 66.91 153.554 66.502 153.434 66.142C153.314 65.782 153.11 65.5 152.822 65.296C152.534 65.092 152.132 65.008 151.616 65.044C151.136 65.044 150.71 65.146 150.338 65.35C149.966 65.554 149.672 65.824 149.456 66.16C149.24 66.496 149.132 66.868 149.132 67.276V73H147.278V63.55H149.132V65.044C149.42 64.6 149.84 64.21 150.392 63.874C150.944 63.526 151.556 63.352 152.228 63.352ZM163.707 60.4C164.931 60.4 165.855 60.67 166.479 61.21C167.103 61.75 167.415 62.536 167.415 63.568C167.415 64.132 167.277 64.636 167.001 65.08C166.737 65.524 166.341 65.872 165.813 66.124C166.209 66.256 166.575 66.46 166.911 66.736C167.259 67 167.541 67.342 167.757 67.762C167.973 68.182 168.081 68.692 168.081 69.292C168.081 70.024 167.955 70.63 167.703 71.11C167.451 71.59 167.121 71.968 166.713 72.244C166.305 72.52 165.855 72.718 165.363 72.838C164.871 72.946 164.379 73 163.887 73H158.451V60.4H163.707ZM163.383 62.272H160.395V65.62H163.599C164.091 65.608 164.523 65.458 164.895 65.17C165.279 64.882 165.471 64.474 165.471 63.946C165.471 63.346 165.267 62.92 164.859 62.668C164.463 62.404 163.971 62.272 163.383 62.272ZM163.689 67.492H160.395V71.128H163.779C164.463 71.128 165.021 70.978 165.453 70.678C165.885 70.366 166.101 69.892 166.101 69.256C166.101 68.8 165.975 68.446 165.723 68.194C165.471 67.942 165.159 67.762 164.787 67.654C164.427 67.546 164.061 67.492 163.689 67.492ZM170.183 73V59.68H172.037V73H170.183ZM183.561 68.266C183.561 69.226 183.345 70.078 182.913 70.822C182.493 71.554 181.917 72.13 181.185 72.55C180.465 72.97 179.655 73.18 178.755 73.18C177.855 73.18 177.039 72.97 176.307 72.55C175.575 72.13 174.993 71.554 174.561 70.822C174.141 70.078 173.931 69.226 173.931 68.266C173.931 67.306 174.141 66.46 174.561 65.728C174.993 64.984 175.575 64.402 176.307 63.982C177.039 63.562 177.855 63.352 178.755 63.352C179.655 63.352 180.465 63.562 181.185 63.982C181.917 64.402 182.493 64.984 182.913 65.728C183.345 66.46 183.561 67.306 183.561 68.266ZM181.671 68.266C181.683 67.63 181.557 67.072 181.293 66.592C181.041 66.1 180.693 65.722 180.249 65.458C179.805 65.182 179.307 65.044 178.755 65.044C178.203 65.044 177.699 65.182 177.243 65.458C176.799 65.722 176.445 66.1 176.181 66.592C175.929 67.072 175.809 67.63 175.821 68.266C175.809 68.89 175.929 69.448 176.181 69.94C176.445 70.42 176.799 70.798 177.243 71.074C177.699 71.35 178.203 71.488 178.755 71.488C179.307 71.488 179.805 71.35 180.249 71.074C180.693 70.798 181.041 70.42 181.293 69.94C181.557 69.448 181.683 68.89 181.671 68.266ZM186.769 68.266C186.769 68.89 186.907 69.448 187.183 69.94C187.471 70.42 187.843 70.804 188.299 71.092C188.767 71.368 189.265 71.506 189.793 71.506C190.393 71.506 190.915 71.35 191.359 71.038C191.803 70.726 192.163 70.402 192.439 70.066L193.465 71.326C193.237 71.65 192.925 71.956 192.529 72.244C192.133 72.52 191.683 72.748 191.179 72.928C190.675 73.096 190.147 73.18 189.595 73.18C188.731 73.18 187.951 72.964 187.255 72.532C186.559 72.1 186.007 71.512 185.599 70.768C185.203 70.024 185.005 69.19 185.005 68.266C185.005 67.33 185.203 66.496 185.599 65.764C186.007 65.02 186.559 64.432 187.255 64C187.951 63.568 188.731 63.352 189.595 63.352C190.471 63.352 191.251 63.532 191.935 63.892C192.619 64.24 193.129 64.696 193.465 65.26L192.439 66.52C192.163 66.112 191.767 65.764 191.251 65.476C190.747 65.176 190.255 65.026 189.775 65.026C189.211 65.026 188.701 65.17 188.245 65.458C187.789 65.734 187.429 66.118 187.165 66.61C186.901 67.09 186.769 67.642 186.769 68.266ZM195.214 73V59.68H197.068V67.78L201.334 63.55H203.836L199.408 67.708L203.962 73H201.586L198.094 68.932L197.068 69.904V73H195.214ZM210.811 66.034C210.475 65.698 210.091 65.422 209.659 65.206C209.239 64.99 208.849 64.882 208.489 64.882C208.237 64.882 207.985 64.912 207.733 64.972C207.493 65.032 207.289 65.146 207.121 65.314C206.953 65.47 206.869 65.704 206.869 66.016C206.881 66.448 207.073 66.754 207.445 66.934C207.829 67.114 208.303 67.276 208.867 67.42C209.359 67.552 209.839 67.72 210.307 67.924C210.775 68.116 211.159 68.404 211.459 68.788C211.771 69.16 211.927 69.688 211.927 70.372C211.927 70.96 211.759 71.464 211.423 71.884C211.099 72.304 210.673 72.628 210.145 72.856C209.629 73.072 209.083 73.18 208.507 73.18C207.823 73.18 207.145 73.06 206.473 72.82C205.813 72.568 205.249 72.142 204.781 71.542L206.041 70.462C206.365 70.834 206.731 71.128 207.139 71.344C207.559 71.548 208.069 71.65 208.669 71.65C208.897 71.65 209.125 71.614 209.353 71.542C209.581 71.458 209.773 71.332 209.929 71.164C210.097 70.984 210.181 70.744 210.181 70.444C210.181 70.156 210.091 69.934 209.911 69.778C209.743 69.61 209.515 69.478 209.227 69.382C208.939 69.274 208.621 69.178 208.273 69.094C207.757 68.95 207.247 68.776 206.743 68.572C206.251 68.356 205.837 68.056 205.501 67.672C205.177 67.276 205.015 66.742 205.015 66.07C205.015 65.506 205.171 65.026 205.483 64.63C205.807 64.222 206.227 63.91 206.743 63.694C207.259 63.466 207.811 63.352 208.399 63.352C208.963 63.352 209.575 63.472 210.235 63.712C210.895 63.952 211.441 64.336 211.873 64.864L210.811 66.034ZM221.877 73V62.272H218.349V60.4H227.457V62.272H223.821V73H221.877ZM240.704 60.4L235.628 73H233.738L228.698 60.4H230.912L233.918 68.05C234.074 68.458 234.224 68.86 234.368 69.256C234.524 69.652 234.668 70.054 234.8 70.462C234.932 70.054 235.07 69.652 235.214 69.256C235.358 68.848 235.502 68.446 235.646 68.05L238.436 60.4H240.704Z" fill="white"/>
</g>
<g filter="url(#filter6_d)">
<path d="M117.776 81.4L115.992 87H115.392L113.952 83.6L112.56 87H111.976L110.192 81.4H111.112L112.192 84.904C112.229 85.032 112.261 85.1547 112.288 85.272C112.32 85.3893 112.347 85.5013 112.368 85.608C112.395 85.5013 112.427 85.3893 112.464 85.272C112.501 85.1547 112.547 85.0293 112.6 84.896L113.608 82.368H114.384L115.36 84.896C115.419 85.04 115.467 85.1707 115.504 85.288C115.541 85.4 115.573 85.504 115.6 85.6C115.616 85.504 115.637 85.3973 115.664 85.28C115.696 85.1627 115.736 85.0293 115.784 84.88L116.848 81.4H117.776ZM121.95 86.448H121.942C121.771 86.6133 121.536 86.76 121.238 86.888C120.939 87.016 120.627 87.08 120.302 87.08C119.864 87.08 119.478 86.9893 119.142 86.808C118.811 86.6213 118.552 86.368 118.366 86.048C118.179 85.7227 118.086 85.3547 118.086 84.944C118.086 84.4747 118.184 84.0747 118.382 83.744C118.579 83.408 118.84 83.152 119.166 82.976C119.491 82.7947 119.846 82.704 120.23 82.704C120.582 82.704 120.902 82.792 121.19 82.968C121.478 83.1387 121.707 83.376 121.878 83.68C122.048 83.984 122.134 84.3387 122.134 84.744L122.126 85.096H118.91C118.958 85.4747 119.112 85.776 119.374 86C119.64 86.2187 119.976 86.328 120.382 86.328C120.675 86.328 120.912 86.2747 121.094 86.168C121.275 86.056 121.424 85.9493 121.542 85.848L121.95 86.448ZM120.23 83.464C119.915 83.464 119.64 83.5387 119.406 83.688C119.171 83.832 119.016 84.0827 118.942 84.44H121.294V84.384C121.278 84.2027 121.216 84.0427 121.11 83.904C121.008 83.7653 120.88 83.6587 120.726 83.584C120.571 83.504 120.406 83.464 120.23 83.464ZM124.061 82.08C124.061 82.2827 124.005 82.472 123.893 82.648C123.786 82.824 123.645 82.976 123.469 83.104C123.293 83.232 123.109 83.3253 122.917 83.384L122.613 83.016C122.821 82.92 122.992 82.8107 123.125 82.688C123.258 82.5653 123.325 82.4587 123.325 82.368C123.325 82.2933 123.296 82.2293 123.237 82.176C123.184 82.1227 123.122 82.0693 123.053 82.016C122.984 81.9627 122.92 81.904 122.861 81.84C122.808 81.776 122.781 81.696 122.781 81.6C122.781 81.4667 122.826 81.3627 122.917 81.288C123.013 81.2133 123.13 81.176 123.269 81.176C123.466 81.176 123.648 81.2533 123.813 81.408C123.978 81.5627 124.061 81.7867 124.061 82.08ZM124.959 87V81.08H125.783V87H124.959ZM126.959 87V81.08H127.783V87H126.959ZM133.385 82.712C133.758 82.712 134.092 82.8053 134.385 82.992C134.684 83.1733 134.918 83.4293 135.089 83.76C135.26 84.0853 135.345 84.4613 135.345 84.888C135.345 85.3147 135.26 85.6933 135.089 86.024C134.918 86.3547 134.686 86.6133 134.393 86.8C134.1 86.9867 133.772 87.08 133.409 87.08C133.11 87.08 132.838 87.016 132.593 86.888C132.353 86.7547 132.164 86.6053 132.025 86.44V86.976H131.201V81.08H132.025V83.408C132.148 83.232 132.332 83.072 132.577 82.928C132.822 82.784 133.092 82.712 133.385 82.712ZM133.273 83.464C133.022 83.464 132.798 83.5253 132.601 83.648C132.409 83.7707 132.257 83.9413 132.145 84.16C132.038 84.3733 131.985 84.616 131.985 84.888C131.985 85.16 132.038 85.4053 132.145 85.624C132.257 85.8373 132.409 86.008 132.601 86.136C132.798 86.264 133.022 86.328 133.273 86.328C133.524 86.328 133.745 86.264 133.937 86.136C134.129 86.008 134.278 85.8373 134.385 85.624C134.497 85.4053 134.553 85.16 134.553 84.888C134.553 84.616 134.497 84.3733 134.385 84.16C134.278 83.9413 134.129 83.7707 133.937 83.648C133.745 83.5253 133.524 83.464 133.273 83.464ZM139.848 86.448H139.84C139.669 86.6133 139.435 86.76 139.136 86.888C138.837 87.016 138.525 87.08 138.2 87.08C137.763 87.08 137.376 86.9893 137.04 86.808C136.709 86.6213 136.451 86.368 136.264 86.048C136.077 85.7227 135.984 85.3547 135.984 84.944C135.984 84.4747 136.083 84.0747 136.28 83.744C136.477 83.408 136.739 83.152 137.064 82.976C137.389 82.7947 137.744 82.704 138.128 82.704C138.48 82.704 138.8 82.792 139.088 82.968C139.376 83.1387 139.605 83.376 139.776 83.68C139.947 83.984 140.032 84.3387 140.032 84.744L140.024 85.096H136.808C136.856 85.4747 137.011 85.776 137.272 86C137.539 86.2187 137.875 86.328 138.28 86.328C138.573 86.328 138.811 86.2747 138.992 86.168C139.173 86.056 139.323 85.9493 139.44 85.848L139.848 86.448ZM138.128 83.464C137.813 83.464 137.539 83.5387 137.304 83.688C137.069 83.832 136.915 84.0827 136.84 84.44H139.192V84.384C139.176 84.2027 139.115 84.0427 139.008 83.904C138.907 83.7653 138.779 83.6587 138.624 83.584C138.469 83.504 138.304 83.464 138.128 83.464ZM145.522 83.688C145.468 83.6613 145.402 83.64 145.322 83.624C145.247 83.6027 145.167 83.592 145.082 83.592C144.911 83.592 144.743 83.6373 144.578 83.728C144.412 83.8133 144.274 83.9387 144.162 84.104C144.055 84.264 144.002 84.456 144.002 84.68V87H143.17V82.8H144.002V83.592C144.119 83.336 144.295 83.1253 144.53 82.96C144.77 82.7947 145.02 82.712 145.282 82.712C145.479 82.712 145.631 82.7387 145.738 82.792L145.522 83.688ZM146.948 81.888C146.762 81.888 146.623 81.84 146.532 81.744C146.442 81.648 146.396 81.5227 146.396 81.368C146.396 81.2347 146.442 81.1147 146.532 81.008C146.623 80.9013 146.762 80.848 146.948 80.848C147.135 80.848 147.274 80.896 147.364 80.992C147.455 81.088 147.5 81.2133 147.5 81.368C147.5 81.5013 147.455 81.6213 147.364 81.728C147.274 81.8347 147.135 81.888 146.948 81.888ZM147.372 87H146.548V82.8H147.372V87ZM149.199 87.696C149.359 87.8187 149.559 87.9173 149.799 87.992C150.039 88.0667 150.274 88.104 150.503 88.104C150.935 88.104 151.266 87.9973 151.495 87.784C151.724 87.576 151.839 87.2613 151.839 86.84V86.328C151.764 86.456 151.658 86.5787 151.519 86.696C151.38 86.808 151.218 86.9013 151.031 86.976C150.844 87.0453 150.65 87.08 150.447 87.08C150.058 87.08 149.706 86.9867 149.391 86.8C149.076 86.6133 148.826 86.3547 148.639 86.024C148.458 85.6933 148.367 85.3173 148.367 84.896C148.367 84.4693 148.458 84.0933 148.639 83.768C148.82 83.4373 149.066 83.1787 149.375 82.992C149.69 82.8053 150.039 82.712 150.423 82.712C150.743 82.712 151.026 82.784 151.271 82.928C151.522 83.0667 151.711 83.2187 151.839 83.384V82.8H152.663V86.744C152.663 87.2453 152.562 87.648 152.359 87.952C152.162 88.2613 151.898 88.4853 151.567 88.624C151.242 88.768 150.887 88.84 150.503 88.84C150.204 88.84 149.906 88.792 149.607 88.696C149.314 88.6053 149.076 88.4853 148.895 88.336L149.199 87.696ZM150.535 83.464C150.279 83.464 150.05 83.528 149.847 83.656C149.65 83.7787 149.492 83.9493 149.375 84.168C149.263 84.3813 149.207 84.624 149.207 84.896C149.207 85.168 149.263 85.4107 149.375 85.624C149.492 85.8373 149.65 86.008 149.847 86.136C150.05 86.2587 150.279 86.32 150.535 86.32C150.802 86.32 151.034 86.2587 151.231 86.136C151.434 86.0133 151.591 85.8453 151.703 85.632C151.815 85.4133 151.871 85.168 151.871 84.896C151.871 84.6187 151.815 84.3733 151.703 84.16C151.591 83.9467 151.434 83.7787 151.231 83.656C151.034 83.528 150.802 83.464 150.535 83.464ZM156.018 82.712C156.397 82.712 156.69 82.7893 156.898 82.944C157.106 83.0987 157.25 83.3067 157.33 83.568C157.416 83.8293 157.458 84.12 157.458 84.44V87H156.634V84.496C156.634 84.2933 156.608 84.112 156.554 83.952C156.501 83.792 156.41 83.6667 156.282 83.576C156.154 83.4853 155.976 83.448 155.746 83.464C155.533 83.464 155.344 83.5093 155.178 83.6C155.013 83.6907 154.882 83.8107 154.786 83.96C154.69 84.1093 154.642 84.2747 154.642 84.456V87H153.818V81.08H154.642V83.464C154.77 83.2667 154.957 83.0933 155.202 82.944C155.448 82.7893 155.72 82.712 156.018 82.712ZM159.92 87H159.096V83.6H158.224V82.8H159.096V81.728H159.92V82.8H160.896V83.6H159.92V87ZM166.073 82.712C166.446 82.712 166.779 82.8053 167.073 82.992C167.371 83.1733 167.606 83.4293 167.777 83.76C167.947 84.0853 168.033 84.4613 168.033 84.888C168.033 85.3147 167.947 85.6933 167.777 86.024C167.606 86.3547 167.374 86.6133 167.081 86.8C166.787 86.9867 166.459 87.08 166.097 87.08C165.798 87.08 165.526 87.016 165.281 86.888C165.041 86.7547 164.851 86.6053 164.713 86.44V86.976H163.889V81.08H164.713V83.408C164.835 83.232 165.019 83.072 165.265 82.928C165.51 82.784 165.779 82.712 166.073 82.712ZM165.961 83.464C165.71 83.464 165.486 83.5253 165.289 83.648C165.097 83.7707 164.945 83.9413 164.833 84.16C164.726 84.3733 164.673 84.616 164.673 84.888C164.673 85.16 164.726 85.4053 164.833 85.624C164.945 85.8373 165.097 86.008 165.289 86.136C165.486 86.264 165.71 86.328 165.961 86.328C166.211 86.328 166.433 86.264 166.625 86.136C166.817 86.008 166.966 85.8373 167.073 85.624C167.185 85.4053 167.241 85.16 167.241 84.888C167.241 84.616 167.185 84.3733 167.073 84.16C166.966 83.9413 166.817 83.7707 166.625 83.648C166.433 83.5253 166.211 83.464 165.961 83.464ZM172.84 82.8V87H172.008V86.352C171.88 86.528 171.69 86.6933 171.44 86.848C171.189 87.0027 170.898 87.08 170.568 87.08C170.216 87.08 169.893 86.9867 169.6 86.8C169.312 86.6133 169.082 86.3547 168.912 86.024C168.741 85.6933 168.656 85.3147 168.656 84.888C168.656 84.4613 168.744 84.0853 168.92 83.76C169.096 83.4293 169.338 83.1733 169.648 82.992C169.957 82.8053 170.309 82.712 170.704 82.712C170.997 82.712 171.253 82.776 171.472 82.904C171.696 83.032 171.874 83.1813 172.008 83.352V82.8H172.84ZM170.76 86.32C171.016 86.32 171.24 86.2587 171.432 86.136C171.624 86.008 171.773 85.8373 171.88 85.624C171.986 85.4053 172.04 85.16 172.04 84.888C172.04 84.6213 171.986 84.3813 171.88 84.168C171.773 83.9547 171.624 83.7867 171.432 83.664C171.24 83.536 171.016 83.472 170.76 83.472C170.514 83.472 170.296 83.5333 170.104 83.656C169.912 83.7787 169.762 83.9467 169.656 84.16C169.549 84.3733 169.496 84.616 169.496 84.888C169.496 85.16 169.549 85.4053 169.656 85.624C169.762 85.8373 169.912 86.008 170.104 86.136C170.296 86.2587 170.514 86.32 170.76 86.32ZM174.518 84.896C174.518 85.1733 174.579 85.4213 174.702 85.64C174.83 85.8533 174.995 86.024 175.198 86.152C175.406 86.2747 175.627 86.336 175.862 86.336C176.129 86.336 176.361 86.2667 176.558 86.128C176.755 85.9893 176.915 85.8453 177.038 85.696L177.494 86.256C177.393 86.4 177.254 86.536 177.078 86.664C176.902 86.7867 176.702 86.888 176.478 86.968C176.254 87.0427 176.019 87.08 175.774 87.08C175.39 87.08 175.043 86.984 174.734 86.792C174.425 86.6 174.179 86.3387 173.998 86.008C173.822 85.6773 173.734 85.3067 173.734 84.896C173.734 84.48 173.822 84.1093 173.998 83.784C174.179 83.4533 174.425 83.192 174.734 83C175.043 82.808 175.39 82.712 175.774 82.712C176.163 82.712 176.51 82.792 176.814 82.952C177.118 83.1067 177.345 83.3093 177.494 83.56L177.038 84.12C176.915 83.9387 176.739 83.784 176.51 83.656C176.286 83.5227 176.067 83.456 175.854 83.456C175.603 83.456 175.377 83.52 175.174 83.648C174.971 83.7707 174.811 83.9413 174.694 84.16C174.577 84.3733 174.518 84.6187 174.518 84.896ZM178.271 87V81.08H179.095V84.68L180.991 82.8H182.103L180.135 84.648L182.159 87H181.103L179.551 85.192L179.095 85.624V87H178.271ZM182.938 85.072C182.906 84.7787 182.874 84.4587 182.842 84.112C182.816 83.76 182.792 83.4 182.77 83.032C182.754 82.664 182.746 82.3067 182.746 81.96V81.4H183.61V81.96C183.61 82.3067 183.602 82.664 183.586 83.032C183.57 83.4 183.546 83.76 183.514 84.112C183.488 84.4587 183.456 84.7787 183.418 85.072H182.938ZM183.154 87.088C182.968 87.088 182.829 87.0347 182.738 86.928C182.648 86.816 182.602 86.6693 182.602 86.488C182.602 86.3333 182.648 86.1947 182.738 86.072C182.829 85.9493 182.968 85.888 183.154 85.888C183.341 85.888 183.48 85.944 183.57 86.056C183.661 86.1627 183.706 86.3067 183.706 86.488C183.706 86.6373 183.661 86.776 183.57 86.904C183.48 87.0267 183.341 87.088 183.154 87.088Z" fill="white" fill-opacity="0.8"/>
</g>
<defs>
<filter id="filter0_d" x="46.1436" y="54.6188" width="35.7128" height="38.7624" filterUnits="userSpaceOnUse" color-interpolation-filters="sRGB">
<feFlood flood-opacity="0" result="BackgroundImageFix"/>
<feColorMatrix in="SourceAlpha" type="matrix" values="0 0 0 0 0 0 0 0 0 0 0 0 0 0 0 0 0 0 127 0"/>
<feOffset dy="2"/>
<feGaussianBlur stdDeviation="2"/>
<feColorMatrix type="matrix" values="0 0 0 0 0 0 0 0 0 0 0 0 0 0 0 0 0 0 0.25 0"/>
<feBlend mode="normal" in2="BackgroundImageFix" result="effect1_dropShadow"/>
<feBlend mode="normal" in="SourceGraphic" in2="effect1_dropShadow" result="shape"/>
</filter>
<filter id="filter1_bd" x="28.6911" y="36.7106" width="19.441" height="20.5161" filterUnits="userSpaceOnUse" color-interpolation-filters="sRGB">
<feFlood flood-opacity="0" result="BackgroundImageFix"/>
<feGaussianBlur in="BackgroundImage" stdDeviation="2.5"/>
<feComposite in2="SourceAlpha" operator="in" result="effect1_backgroundBlur"/>
<feColorMatrix in="SourceAlpha" type="matrix" values="0 0 0 0 0 0 0 0 0 0 0 0 0 0 0 0 0 0 127 0"/>
<feOffset dy="2"/>
<feGaussianBlur stdDeviation="2"/>
<feColorMatrix type="matrix" values="0 0 0 0 0 0 0 0 0 0 0 0 0 0 0 0 0 0 0.25 0"/>
<feBlend mode="normal" in2="effect1_backgroundBlur" result="effect2_dropShadow"/>
<feBlend mode="normal" in="SourceGraphic" in2="effect2_dropShadow" result="shape"/>
</filter>
<filter id="filter2_bd" x="79.8679" y="36.7106" width="19.441" height="20.5161" filterUnits="userSpaceOnUse" color-interpolation-filters="sRGB">
<feFlood flood-opacity="0" result="BackgroundImageFix"/>
<feGaussianBlur in="BackgroundImage" stdDeviation="2.5"/>
<feComposite in2="SourceAlpha" operator="in" result="effect1_backgroundBlur"/>
<feColorMatrix in="SourceAlpha" type="matrix" values="0 0 0 0 0 0 0 0 0 0 0 0 0 0 0 0 0 0 127 0"/>
<feOffset dy="2"/>
<feGaussianBlur stdDeviation="2"/>
<feColorMatrix type="matrix" values="0 0 0 0 0 0 0 0 0 0 0 0 0 0 0 0 0 0 0.25 0"/>
<feBlend mode="normal" in2="effect1_backgroundBlur" result="effect2_dropShadow"/>
<feBlend mode="normal" in="SourceGraphic" in2="effect2_dropShadow" result="shape"/>
</filter>
<filter id="filter3_bd" x="28.6911" y="87.6398" width="19.441" height="20.5161" filterUnits="userSpaceOnUse" color-interpolation-filters="sRGB">
<feFlood flood-opacity="0" result="BackgroundImageFix"/>
<feGaussianBlur in="BackgroundImage" stdDeviation="2.5"/>
<feComposite in2="SourceAlpha" operator="in" result="effect1_backgroundBlur"/>
<feColorMatrix in="SourceAlpha" type="matrix" values="0 0 0 0 0 0 0 0 0 0 0 0 0 0 0 0 0 0 127 0"/>
<feOffset dy="2"/>
<feGaussianBlur stdDeviation="2"/>
<feColorMatrix type="matrix" values="0 0 0 0 0 0 0 0 0 0 0 0 0 0 0 0 0 0 0.25 0"/>
<feBlend mode="normal" in2="effect1_backgroundBlur" result="effect2_dropShadow"/>
<feBlend mode="normal" in="SourceGraphic" in2="effect2_dropShadow" result="shape"/>
</filter>
<filter id="filter4_bd" x="79.8679" y="87.7733" width="19.441" height="20.5161" filterUnits="userSpaceOnUse" color-interpolation-filters="sRGB">
<feFlood flood-opacity="0" result="BackgroundImageFix"/>
<feGaussianBlur in="BackgroundImage" stdDeviation="2.5"/>
<feComposite in2="SourceAlpha" operator="in" result="effect1_backgroundBlur"/>
<feColorMatrix in="SourceAlpha" type="matrix" values="0 0 0 0 0 0 0 0 0 0 0 0 0 0 0 0 0 0 127 0"/>
<feOffset dy="2"/>
<feGaussianBlur stdDeviation="2"/>
<feColorMatrix type="matrix" values="0 0 0 0 0 0 0 0 0 0 0 0 0 0 0 0 0 0 0.25 0"/>
<feBlend mode="normal" in2="effect1_backgroundBlur" result="effect2_dropShadow"/>
<feBlend mode="normal" in="SourceGraphic" in2="effect2_dropShadow" result="shape"/>
</filter>
<filter id="filter5_d" x="106.864" y="57.68" width="137.84" height="25.28" filterUnits="userSpaceOnUse" color-interpolation-filters="sRGB">
<feFlood flood-opacity="0" result="BackgroundImageFix"/>
<feColorMatrix in="SourceAlpha" type="matrix" values="0 0 0 0 0 0 0 0 0 0 0 0 0 0 0 0 0 0 127 0"/>
<feOffset dy="2"/>
<feGaussianBlur stdDeviation="2"/>
<feColorMatrix type="matrix" values="0 0 0 0 0 0 0 0 0 0 0 0 0 0 0 0 0 0 0.2 0"/>
<feBlend mode="normal" in2="BackgroundImageFix" result="effect1_dropShadow"/>
<feBlend mode="normal" in="SourceGraphic" in2="effect1_dropShadow" result="shape"/>
</filter>
<filter id="filter6_d" x="106.192" y="78.848" width="81.5142" height="15.992" filterUnits="userSpaceOnUse" color-interpolation-filters="sRGB">
<feFlood flood-opacity="0" result="BackgroundImageFix"/>
<feColorMatrix in="SourceAlpha" type="matrix" values="0 0 0 0 0 0 0 0 0 0 0 0 0 0 0 0 0 0 127 0"/>
<feOffset dy="2"/>
<feGaussianBlur stdDeviation="2"/>
<feColorMatrix type="matrix" values="0 0 0 0 0 0 0 0 0 0 0 0 0 0 0 0 0 0 0.2 0"/>
<feBlend mode="normal" in2="BackgroundImageFix" result="effect1_dropShadow"/>
<feBlend mode="normal" in="SourceGraphic" in2="effect1_dropShadow" result="shape"/>
</filter>
<linearGradient id="paint0_linear" x1="0" y1="0" x2="123.062" y2="218.777" gradientUnits="userSpaceOnUse">
<stop stop-color="#7D21F3"/>
<stop offset="1" stop-color="#28D219"/>
</linearGradient>
</defs>
</svg>
