<svg width="256" height="144" viewBox="0 0 256 144" fill="none" xmlns="http://www.w3.org/2000/svg">
<path d="M0 0H256V70.4V144H0V0Z" fill="url(#paint0_linear)"/>
<g filter="url(#filter0_d)">
<path d="M62 57.1547C63.2376 56.4402 64.7624 56.4402 66 57.1547L75.8564 62.8453C77.094 63.5598 77.8564 64.8803 77.8564 66.3094V77.6906C77.8564 79.1197 77.094 80.4402 75.8564 81.1547L66 86.8453C64.7624 87.5598 63.2376 87.5598 62 86.8453L52.1436 81.1547C50.906 80.4402 50.1436 79.1197 50.1436 77.6906V66.3094C50.1436 64.8803 50.906 63.5598 52.1436 62.8453L62 57.1547Z" fill="white" fill-opacity="0.9"/>
</g>
<g filter="url(#filter1_d)">
<path d="M34.9384 51.2214L34.9384 47.9954C34.9384 45.2197 37.185 42.9634 39.9486 42.9634L43.1269 42.9634" stroke="white" stroke-opacity="0.25" stroke-width="2.5"/>
</g>
<g filter="url(#filter2_d)">
<path d="M93.0616 51.2214L93.0616 47.9954C93.0616 45.2197 90.815 42.9634 88.0514 42.9634L84.8731 42.9634" stroke="white" stroke-opacity="0.25" stroke-width="2.5"/>
</g>
<g filter="url(#filter3_d)">
<path d="M34.9384 92.6452L34.9384 95.8711C34.9384 98.6468 37.185 100.903 39.9486 100.903L43.1269 100.903" stroke="white" stroke-opacity="0.25" stroke-width="2.5"/>
</g>
<g filter="url(#filter4_d)">
<path d="M93.0616 92.7786L93.0616 96.0046C93.0616 98.7803 90.815 101.037 88.0514 101.037L84.8731 101.037" stroke="white" stroke-opacity="0.25" stroke-width="2.5"/>
</g>
<g filter="url(#filter5_d)">
<path d="M123.212 66.7C123.212 67.612 123.062 68.464 122.762 69.256C122.462 70.036 122.03 70.72 121.466 71.308C120.914 71.896 120.26 72.358 119.504 72.694C118.76 73.018 117.938 73.18 117.038 73.18C116.138 73.18 115.31 73.018 114.554 72.694C113.798 72.358 113.144 71.896 112.592 71.308C112.04 70.72 111.614 70.036 111.314 69.256C111.014 68.464 110.864 67.612 110.864 66.7C110.864 65.788 111.014 64.942 111.314 64.162C111.614 63.37 112.04 62.68 112.592 62.092C113.144 61.504 113.798 61.048 114.554 60.724C115.31 60.388 116.138 60.22 117.038 60.22C117.938 60.22 118.76 60.388 119.504 60.724C120.26 61.048 120.914 61.504 121.466 62.092C122.03 62.68 122.462 63.37 122.762 64.162C123.062 64.942 123.212 65.788 123.212 66.7ZM121.232 66.7C121.232 65.824 121.052 65.044 120.692 64.36C120.332 63.664 119.834 63.118 119.198 62.722C118.574 62.314 117.854 62.11 117.038 62.11C116.21 62.11 115.478 62.314 114.842 62.722C114.218 63.118 113.726 63.664 113.366 64.36C113.018 65.044 112.844 65.824 112.844 66.7C112.844 67.576 113.018 68.362 113.366 69.058C113.726 69.742 114.218 70.288 114.842 70.696C115.478 71.092 116.21 71.29 117.038 71.29C117.854 71.29 118.574 71.092 119.198 70.696C119.834 70.288 120.332 69.736 120.692 69.04C121.052 68.344 121.232 67.564 121.232 66.7ZM130.308 63.388C131.148 63.388 131.898 63.598 132.558 64.018C133.23 64.426 133.758 64.996 134.142 65.728C134.526 66.46 134.718 67.306 134.718 68.266C134.718 69.214 134.526 70.06 134.142 70.804C133.758 71.536 133.236 72.112 132.576 72.532C131.916 72.952 131.178 73.162 130.362 73.162C129.69 73.162 129.078 73.018 128.526 72.73C127.986 72.442 127.56 72.112 127.248 71.74V76.96H125.376V63.532H127.248V64.918C127.524 64.522 127.938 64.168 128.49 63.856C129.042 63.544 129.648 63.388 130.308 63.388ZM130.056 65.098C129.492 65.098 128.988 65.236 128.544 65.512C128.112 65.788 127.77 66.166 127.518 66.646C127.278 67.114 127.158 67.654 127.158 68.266C127.158 68.866 127.278 69.406 127.518 69.886C127.77 70.366 128.112 70.75 128.544 71.038C128.988 71.314 129.492 71.452 130.056 71.452C130.62 71.452 131.118 71.314 131.55 71.038C131.982 70.75 132.318 70.366 132.558 69.886C132.81 69.406 132.936 68.866 132.936 68.266C132.936 67.654 132.81 67.114 132.558 66.646C132.318 66.166 131.982 65.788 131.55 65.512C131.118 65.236 130.62 65.098 130.056 65.098ZM144.85 71.758H144.832C144.448 72.13 143.92 72.46 143.248 72.748C142.576 73.036 141.874 73.18 141.142 73.18C140.158 73.18 139.288 72.976 138.532 72.568C137.788 72.148 137.206 71.578 136.786 70.858C136.366 70.126 136.156 69.298 136.156 68.374C136.156 67.318 136.378 66.418 136.822 65.674C137.266 64.918 137.854 64.342 138.586 63.946C139.318 63.538 140.116 63.334 140.98 63.334C141.772 63.334 142.492 63.532 143.14 63.928C143.788 64.312 144.304 64.846 144.688 65.53C145.072 66.214 145.264 67.012 145.264 67.924L145.246 68.716H138.01C138.118 69.568 138.466 70.246 139.054 70.75C139.654 71.242 140.41 71.488 141.322 71.488C141.982 71.488 142.516 71.368 142.924 71.128C143.332 70.876 143.668 70.636 143.932 70.408L144.85 71.758ZM140.98 65.044C140.272 65.044 139.654 65.212 139.126 65.548C138.598 65.872 138.25 66.436 138.082 67.24H143.374V67.114C143.338 66.706 143.2 66.346 142.96 66.034C142.732 65.722 142.444 65.482 142.096 65.314C141.748 65.134 141.376 65.044 140.98 65.044ZM152.228 63.352C153.08 63.352 153.74 63.526 154.208 63.874C154.676 64.222 155 64.69 155.18 65.278C155.372 65.866 155.468 66.52 155.468 67.24V73H153.614V67.366C153.614 66.91 153.554 66.502 153.434 66.142C153.314 65.782 153.11 65.5 152.822 65.296C152.534 65.092 152.132 65.008 151.616 65.044C151.136 65.044 150.71 65.146 150.338 65.35C149.966 65.554 149.672 65.824 149.456 66.16C149.24 66.496 149.132 66.868 149.132 67.276V73H147.278V63.55H149.132V65.044C149.42 64.6 149.84 64.21 150.392 63.874C150.944 63.526 151.556 63.352 152.228 63.352ZM163.707 60.4C164.931 60.4 165.855 60.67 166.479 61.21C167.103 61.75 167.415 62.536 167.415 63.568C167.415 64.132 167.277 64.636 167.001 65.08C166.737 65.524 166.341 65.872 165.813 66.124C166.209 66.256 166.575 66.46 166.911 66.736C167.259 67 167.541 67.342 167.757 67.762C167.973 68.182 168.081 68.692 168.081 69.292C168.081 70.024 167.955 70.63 167.703 71.11C167.451 71.59 167.121 71.968 166.713 72.244C166.305 72.52 165.855 72.718 165.363 72.838C164.871 72.946 164.379 73 163.887 73H158.451V60.4H163.707ZM163.383 62.272H160.395V65.62H163.599C164.091 65.608 164.523 65.458 164.895 65.17C165.279 64.882 165.471 64.474 165.471 63.946C165.471 63.346 165.267 62.92 164.859 62.668C164.463 62.404 163.971 62.272 163.383 62.272ZM163.689 67.492H160.395V71.128H163.779C164.463 71.128 165.021 70.978 165.453 70.678C165.885 70.366 166.101 69.892 166.101 69.256C166.101 68.8 165.975 68.446 165.723 68.194C165.471 67.942 165.159 67.762 164.787 67.654C164.427 67.546 164.061 67.492 163.689 67.492ZM170.183 73V59.68H172.037V73H170.183ZM183.561 68.266C183.561 69.226 183.345 70.078 182.913 70.822C182.493 71.554 181.917 72.13 181.185 72.55C180.465 72.97 179.655 73.18 178.755 73.18C177.855 73.18 177.039 72.97 176.307 72.55C175.575 72.13 174.993 71.554 174.561 70.822C174.141 70.078 173.931 69.226 173.931 68.266C173.931 67.306 174.141 66.46 174.561 65.728C174.993 64.984 175.575 64.402 176.307 63.982C177.039 63.562 177.855 63.352 178.755 63.352C179.655 63.352 180.465 63.562 181.185 63.982C181.917 64.402 182.493 64.984 182.913 65.728C183.345 66.46 183.561 67.306 183.561 68.266ZM181.671 68.266C181.683 67.63 181.557 67.072 181.293 66.592C181.041 66.1 180.693 65.722 180.249 65.458C179.805 65.182 179.307 65.044 178.755 65.044C178.203 65.044 177.699 65.182 177.243 65.458C176.799 65.722 176.445 66.1 176.181 66.592C175.929 67.072 175.809 67.63 175.821 68.266C175.809 68.89 175.929 69.448 176.181 69.94C176.445 70.42 176.799 70.798 177.243 71.074C177.699 71.35 178.203 71.488 178.755 71.488C179.307 71.488 179.805 71.35 180.249 71.074C180.693 70.798 181.041 70.42 181.293 69.94C181.557 69.448 181.683 68.89 181.671 68.266ZM186.769 68.266C186.769 68.89 186.907 69.448 187.183 69.94C187.471 70.42 187.843 70.804 188.299 71.092C188.767 71.368 189.265 71.506 189.793 71.506C190.393 71.506 190.915 71.35 191.359 71.038C191.803 70.726 192.163 70.402 192.439 70.066L193.465 71.326C193.237 71.65 192.925 71.956 192.529 72.244C192.133 72.52 191.683 72.748 191.179 72.928C190.675 73.096 190.147 73.18 189.595 73.18C188.731 73.18 187.951 72.964 187.255 72.532C186.559 72.1 186.007 71.512 185.599 70.768C185.203 70.024 185.005 69.19 185.005 68.266C185.005 67.33 185.203 66.496 185.599 65.764C186.007 65.02 186.559 64.432 187.255 64C187.951 63.568 188.731 63.352 189.595 63.352C190.471 63.352 191.251 63.532 191.935 63.892C192.619 64.24 193.129 64.696 193.465 65.26L192.439 66.52C192.163 66.112 191.767 65.764 191.251 65.476C190.747 65.176 190.255 65.026 189.775 65.026C189.211 65.026 188.701 65.17 188.245 65.458C187.789 65.734 187.429 66.118 187.165 66.61C186.901 67.09 186.769 67.642 186.769 68.266ZM195.214 73V59.68H197.068V67.78L201.334 63.55H203.836L199.408 67.708L203.962 73H201.586L198.094 68.932L197.068 69.904V73H195.214ZM210.811 66.034C210.475 65.698 210.091 65.422 209.659 65.206C209.239 64.99 208.849 64.882 208.489 64.882C208.237 64.882 207.985 64.912 207.733 64.972C207.493 65.032 207.289 65.146 207.121 65.314C206.953 65.47 206.869 65.704 206.869 66.016C206.881 66.448 207.073 66.754 207.445 66.934C207.829 67.114 208.303 67.276 208.867 67.42C209.359 67.552 209.839 67.72 210.307 67.924C210.775 68.116 211.159 68.404 211.459 68.788C211.771 69.16 211.927 69.688 211.927 70.372C211.927 70.96 211.759 71.464 211.423 71.884C211.099 72.304 210.673 72.628 210.145 72.856C209.629 73.072 209.083 73.18 208.507 73.18C207.823 73.18 207.145 73.06 206.473 72.82C205.813 72.568 205.249 72.142 204.781 71.542L206.041 70.462C206.365 70.834 206.731 71.128 207.139 71.344C207.559 71.548 208.069 71.65 208.669 71.65C208.897 71.65 209.125 71.614 209.353 71.542C209.581 71.458 209.773 71.332 209.929 71.164C210.097 70.984 210.181 70.744 210.181 70.444C210.181 70.156 210.091 69.934 209.911 69.778C209.743 69.61 209.515 69.478 209.227 69.382C208.939 69.274 208.621 69.178 208.273 69.094C207.757 68.95 207.247 68.776 206.743 68.572C206.251 68.356 205.837 68.056 205.501 67.672C205.177 67.276 205.015 66.742 205.015 66.07C205.015 65.506 205.171 65.026 205.483 64.63C205.807 64.222 206.227 63.91 206.743 63.694C207.259 63.466 207.811 63.352 208.399 63.352C208.963 63.352 209.575 63.472 210.235 63.712C210.895 63.952 211.441 64.336 211.873 64.864L210.811 66.034Z" fill="white"/>
</g>
<g filter="url(#filter6_d)">
<path d="M112.976 81.4C113.408 81.4 113.787 81.4747 114.112 81.624C114.443 81.768 114.717 81.9707 114.936 82.232C115.155 82.488 115.32 82.7867 115.432 83.128C115.544 83.464 115.6 83.8213 115.6 84.2C115.6 84.712 115.501 85.1813 115.304 85.608C115.107 86.0293 114.813 86.368 114.424 86.624C114.035 86.8747 113.552 87 112.976 87H110.784V81.4H112.976ZM112.936 86.168C113.357 86.168 113.699 86.08 113.96 85.904C114.221 85.7227 114.413 85.4827 114.536 85.184C114.659 84.8853 114.72 84.5573 114.72 84.2C114.72 83.848 114.659 83.5227 114.536 83.224C114.413 82.9253 114.221 82.6853 113.96 82.504C113.699 82.3227 113.357 82.232 112.936 82.232H111.648V86.168H112.936ZM120.584 84.896C120.584 85.3227 120.488 85.7013 120.296 86.032C120.11 86.3573 119.854 86.6133 119.528 86.8C119.208 86.9867 118.848 87.08 118.448 87.08C118.048 87.08 117.686 86.9867 117.36 86.8C117.035 86.6133 116.776 86.3573 116.584 86.032C116.398 85.7013 116.304 85.3227 116.304 84.896C116.304 84.4693 116.398 84.0933 116.584 83.768C116.776 83.4373 117.035 83.1787 117.36 82.992C117.686 82.8053 118.048 82.712 118.448 82.712C118.848 82.712 119.208 82.8053 119.528 82.992C119.854 83.1787 120.11 83.4373 120.296 83.768C120.488 84.0933 120.584 84.4693 120.584 84.896ZM119.744 84.896C119.75 84.6133 119.694 84.3653 119.576 84.152C119.464 83.9333 119.31 83.7653 119.112 83.648C118.915 83.5253 118.694 83.464 118.448 83.464C118.203 83.464 117.979 83.5253 117.776 83.648C117.579 83.7653 117.422 83.9333 117.304 84.152C117.192 84.3653 117.139 84.6133 117.144 84.896C117.139 85.1733 117.192 85.4213 117.304 85.64C117.422 85.8533 117.579 86.0213 117.776 86.144C117.979 86.2667 118.203 86.328 118.448 86.328C118.694 86.328 118.915 86.2667 119.112 86.144C119.31 86.0213 119.464 85.8533 119.576 85.64C119.694 85.4213 119.75 85.1733 119.744 84.896ZM127.636 82.8V87H126.804V86.352C126.676 86.528 126.487 86.6933 126.236 86.848C125.986 87.0027 125.695 87.08 125.364 87.08C125.012 87.08 124.69 86.9867 124.396 86.8C124.108 86.6133 123.879 86.3547 123.708 86.024C123.538 85.6933 123.452 85.3147 123.452 84.888C123.452 84.4613 123.54 84.0853 123.716 83.76C123.892 83.4293 124.135 83.1733 124.444 82.992C124.754 82.8053 125.106 82.712 125.5 82.712C125.794 82.712 126.05 82.776 126.268 82.904C126.492 83.032 126.671 83.1813 126.804 83.352V82.8H127.636ZM125.556 86.32C125.812 86.32 126.036 86.2587 126.228 86.136C126.42 86.008 126.57 85.8373 126.676 85.624C126.783 85.4053 126.836 85.16 126.836 84.888C126.836 84.6213 126.783 84.3813 126.676 84.168C126.57 83.9547 126.42 83.7867 126.228 83.664C126.036 83.536 125.812 83.472 125.556 83.472C125.311 83.472 125.092 83.5333 124.9 83.656C124.708 83.7787 124.559 83.9467 124.452 84.16C124.346 84.3733 124.292 84.616 124.292 84.888C124.292 85.16 124.346 85.4053 124.452 85.624C124.559 85.8373 124.708 86.008 124.9 86.136C125.092 86.2587 125.311 86.32 125.556 86.32ZM130.979 82.728C131.352 82.728 131.686 82.8213 131.979 83.008C132.278 83.1893 132.512 83.4427 132.683 83.768C132.854 84.0933 132.939 84.4693 132.939 84.896C132.939 85.3173 132.854 85.6933 132.683 86.024C132.512 86.3493 132.28 86.6053 131.987 86.792C131.694 86.9787 131.366 87.072 131.003 87.072C130.704 87.072 130.432 87.008 130.187 86.88C129.947 86.752 129.758 86.6053 129.619 86.44V88.76H128.787V82.792H129.619V83.408C129.742 83.232 129.926 83.0747 130.171 82.936C130.416 82.7973 130.686 82.728 130.979 82.728ZM130.867 83.488C130.616 83.488 130.392 83.5493 130.195 83.672C130.003 83.7947 129.851 83.9627 129.739 84.176C129.632 84.384 129.579 84.624 129.579 84.896C129.579 85.1627 129.632 85.4027 129.739 85.616C129.851 85.8293 130.003 86 130.195 86.128C130.392 86.2507 130.616 86.312 130.867 86.312C131.118 86.312 131.339 86.2507 131.531 86.128C131.723 86 131.872 85.8293 131.979 85.616C132.091 85.4027 132.147 85.1627 132.147 84.896C132.147 84.624 132.091 84.384 131.979 84.176C131.872 83.9627 131.723 83.7947 131.531 83.672C131.339 83.5493 131.118 83.488 130.867 83.488ZM136.026 82.728C136.399 82.728 136.732 82.8213 137.026 83.008C137.324 83.1893 137.559 83.4427 137.73 83.768C137.9 84.0933 137.986 84.4693 137.986 84.896C137.986 85.3173 137.9 85.6933 137.73 86.024C137.559 86.3493 137.327 86.6053 137.034 86.792C136.74 86.9787 136.412 87.072 136.05 87.072C135.751 87.072 135.479 87.008 135.234 86.88C134.994 86.752 134.804 86.6053 134.666 86.44V88.76H133.834V82.792H134.666V83.408C134.788 83.232 134.972 83.0747 135.218 82.936C135.463 82.7973 135.732 82.728 136.026 82.728ZM135.914 83.488C135.663 83.488 135.439 83.5493 135.242 83.672C135.05 83.7947 134.898 83.9627 134.786 84.176C134.679 84.384 134.626 84.624 134.626 84.896C134.626 85.1627 134.679 85.4027 134.786 85.616C134.898 85.8293 135.05 86 135.242 86.128C135.439 86.2507 135.663 86.312 135.914 86.312C136.164 86.312 136.386 86.2507 136.578 86.128C136.77 86 136.919 85.8293 137.026 85.616C137.138 85.4027 137.194 85.1627 137.194 84.896C137.194 84.624 137.138 84.384 137.026 84.176C136.919 83.9627 136.77 83.7947 136.578 83.672C136.386 83.5493 136.164 83.488 135.914 83.488ZM141.305 83.904C141.155 83.7547 140.985 83.632 140.793 83.536C140.606 83.44 140.433 83.392 140.273 83.392C140.161 83.392 140.049 83.4053 139.937 83.432C139.83 83.4587 139.739 83.5093 139.665 83.584C139.59 83.6533 139.553 83.7573 139.553 83.896C139.558 84.088 139.643 84.224 139.809 84.304C139.979 84.384 140.19 84.456 140.441 84.52C140.659 84.5787 140.873 84.6533 141.081 84.744C141.289 84.8293 141.459 84.9573 141.593 85.128C141.731 85.2933 141.801 85.528 141.801 85.832C141.801 86.0933 141.726 86.3173 141.577 86.504C141.433 86.6907 141.243 86.8347 141.009 86.936C140.779 87.032 140.537 87.08 140.281 87.08C139.977 87.08 139.675 87.0267 139.377 86.92C139.083 86.808 138.833 86.6187 138.625 86.352L139.185 85.872C139.329 86.0373 139.491 86.168 139.673 86.264C139.859 86.3547 140.086 86.4 140.353 86.4C140.454 86.4 140.555 86.384 140.657 86.352C140.758 86.3147 140.843 86.2587 140.913 86.184C140.987 86.104 141.025 85.9973 141.025 85.864C141.025 85.736 140.985 85.6373 140.905 85.568C140.83 85.4933 140.729 85.4347 140.601 85.392C140.473 85.344 140.331 85.3013 140.177 85.264C139.947 85.2 139.721 85.1227 139.497 85.032C139.278 84.936 139.094 84.8027 138.945 84.632C138.801 84.456 138.729 84.2187 138.729 83.92C138.729 83.6693 138.798 83.456 138.937 83.28C139.081 83.0987 139.267 82.96 139.497 82.864C139.726 82.7627 139.971 82.712 140.233 82.712C140.483 82.712 140.755 82.7653 141.049 82.872C141.342 82.9787 141.585 83.1493 141.777 83.384L141.305 83.904ZM148.141 83.332C148.402 83.332 148.626 83.437 148.813 83.647C149.004 83.857 149.1 84.1627 149.1 84.564C149.1 84.9607 149.03 85.3293 148.89 85.67C148.75 86.006 148.566 86.2813 148.337 86.496C148.108 86.7107 147.849 86.8787 147.56 87C147.271 87.1167 146.974 87.175 146.671 87.175C146.06 87.175 145.577 87.007 145.222 86.671C144.867 86.335 144.69 85.8893 144.69 85.334C144.69 84.5827 144.93 83.9737 145.411 83.507C145.896 83.0357 146.512 82.8 147.259 82.8C147.427 82.8 147.595 82.8187 147.763 82.856C147.814 83.01 147.842 83.185 147.847 83.381C147.945 83.3483 148.043 83.332 148.141 83.332ZM147.28 84.305C147.28 84.1743 147.31 84.0273 147.371 83.864C147.436 83.7007 147.539 83.57 147.679 83.472C147.063 83.6027 146.638 83.8523 146.405 84.221C146.204 84.5383 146.104 84.865 146.104 85.201C146.104 85.537 146.172 85.8077 146.307 86.013C146.447 86.2137 146.624 86.314 146.839 86.314C147.315 86.314 147.651 86.0037 147.847 85.383C147.469 85.1497 147.28 84.7903 147.28 84.305ZM150.674 87.175C150.399 87.175 150.196 87.1027 150.065 86.958C149.934 86.8133 149.869 86.622 149.869 86.384C149.869 86.146 149.916 85.7587 150.009 85.222C150.107 84.6853 150.207 84.1953 150.31 83.752L149.946 83.192C150.408 82.9307 150.835 82.8 151.227 82.8C151.619 82.8 151.815 82.9773 151.815 83.332C151.815 83.5653 151.761 83.8033 151.654 84.046L151.724 84.081C152.223 83.227 152.858 82.8 153.628 82.8C154.193 82.8 154.475 83.0823 154.475 83.647C154.475 83.8897 154.405 84.3003 154.265 84.879C154.13 85.4577 154.062 85.894 154.062 86.188C154.062 86.482 154.111 86.6967 154.209 86.832C153.962 87.0607 153.7 87.175 153.425 87.175C152.888 87.175 152.62 86.8857 152.62 86.307C152.62 86.0923 152.69 85.7283 152.83 85.215C152.97 84.7017 153.04 84.368 153.04 84.214C153.04 84.004 152.961 83.899 152.802 83.899C152.671 83.899 152.522 83.9573 152.354 84.074C152.186 84.186 152.023 84.34 151.864 84.536C151.71 84.7273 151.579 84.9723 151.472 85.271C151.365 85.565 151.311 85.866 151.311 86.174C151.311 86.4773 151.36 86.6967 151.458 86.832C151.211 87.0607 150.949 87.175 150.674 87.175ZM158.416 88.84L159.104 87.264L159.128 87.208L157.176 82.8H158.136L159.448 85.888C159.464 85.92 159.48 85.96 159.496 86.008C159.512 86.056 159.53 86.1093 159.552 86.168C159.573 86.1093 159.592 86.0533 159.608 86C159.629 85.9413 159.65 85.8853 159.672 85.832L160.768 82.8H161.744L160.016 87L159.304 88.84H158.416ZM166.306 84.896C166.306 85.3227 166.21 85.7013 166.018 86.032C165.831 86.3573 165.575 86.6133 165.25 86.8C164.93 86.9867 164.57 87.08 164.17 87.08C163.77 87.08 163.407 86.9867 163.082 86.8C162.757 86.6133 162.498 86.3573 162.306 86.032C162.119 85.7013 162.026 85.3227 162.026 84.896C162.026 84.4693 162.119 84.0933 162.306 83.768C162.498 83.4373 162.757 83.1787 163.082 82.992C163.407 82.8053 163.77 82.712 164.17 82.712C164.57 82.712 164.93 82.8053 165.25 82.992C165.575 83.1787 165.831 83.4373 166.018 83.768C166.21 84.0933 166.306 84.4693 166.306 84.896ZM165.466 84.896C165.471 84.6133 165.415 84.3653 165.298 84.152C165.186 83.9333 165.031 83.7653 164.834 83.648C164.637 83.5253 164.415 83.464 164.17 83.464C163.925 83.464 163.701 83.5253 163.498 83.648C163.301 83.7653 163.143 83.9333 163.026 84.152C162.914 84.3653 162.861 84.6133 162.866 84.896C162.861 85.1733 162.914 85.4213 163.026 85.64C163.143 85.8533 163.301 86.0213 163.498 86.144C163.701 86.2667 163.925 86.328 164.17 86.328C164.415 86.328 164.637 86.2667 164.834 86.144C165.031 86.0213 165.186 85.8533 165.298 85.64C165.415 85.4213 165.471 85.1733 165.466 84.896ZM170.068 85.328V82.8H170.892V87H170.068V86.328C169.945 86.5253 169.764 86.7013 169.524 86.856C169.289 87.0053 169.007 87.08 168.676 87.08C168.239 87.08 167.884 86.9307 167.612 86.632C167.34 86.3333 167.204 85.92 167.204 85.392V82.8H168.028V85.168C168.028 85.3813 168.06 85.5787 168.124 85.76C168.193 85.9413 168.3 86.088 168.444 86.2C168.593 86.3067 168.783 86.36 169.012 86.36C169.3 86.36 169.548 86.2693 169.756 86.088C169.964 85.9067 170.068 85.6533 170.068 85.328ZM174.4 83.688C174.346 83.6613 174.28 83.64 174.2 83.624C174.125 83.6027 174.045 83.592 173.96 83.592C173.789 83.592 173.621 83.6373 173.456 83.728C173.29 83.8133 173.152 83.9387 173.04 84.104C172.933 84.264 172.88 84.456 172.88 84.68V87H172.048V82.8H172.88V83.592C172.997 83.336 173.173 83.1253 173.408 82.96C173.648 82.7947 173.898 82.712 174.16 82.712C174.357 82.712 174.509 82.7387 174.616 82.792L174.4 83.688ZM179.94 83.904C179.791 83.7547 179.62 83.632 179.428 83.536C179.242 83.44 179.068 83.392 178.908 83.392C178.796 83.392 178.684 83.4053 178.572 83.432C178.466 83.4587 178.375 83.5093 178.3 83.584C178.226 83.6533 178.188 83.7573 178.188 83.896C178.194 84.088 178.279 84.224 178.444 84.304C178.615 84.384 178.826 84.456 179.076 84.52C179.295 84.5787 179.508 84.6533 179.716 84.744C179.924 84.8293 180.095 84.9573 180.228 85.128C180.367 85.2933 180.436 85.528 180.436 85.832C180.436 86.0933 180.362 86.3173 180.212 86.504C180.068 86.6907 179.879 86.8347 179.644 86.936C179.415 87.032 179.172 87.08 178.916 87.08C178.612 87.08 178.311 87.0267 178.012 86.92C177.719 86.808 177.468 86.6187 177.26 86.352L177.82 85.872C177.964 86.0373 178.127 86.168 178.308 86.264C178.495 86.3547 178.722 86.4 178.988 86.4C179.09 86.4 179.191 86.384 179.292 86.352C179.394 86.3147 179.479 86.2587 179.548 86.184C179.623 86.104 179.66 85.9973 179.66 85.864C179.66 85.736 179.62 85.6373 179.54 85.568C179.466 85.4933 179.364 85.4347 179.236 85.392C179.108 85.344 178.967 85.3013 178.812 85.264C178.583 85.2 178.356 85.1227 178.132 85.032C177.914 84.936 177.73 84.8027 177.58 84.632C177.436 84.456 177.364 84.2187 177.364 83.92C177.364 83.6693 177.434 83.456 177.572 83.28C177.716 83.0987 177.903 82.96 178.132 82.864C178.362 82.7627 178.607 82.712 178.868 82.712C179.119 82.712 179.391 82.7653 179.684 82.872C179.978 82.9787 180.22 83.1493 180.412 83.384L179.94 83.904ZM183.481 82.728C183.827 82.728 184.105 82.808 184.313 82.968C184.521 83.1227 184.67 83.336 184.761 83.608C184.835 83.4747 184.945 83.3413 185.089 83.208C185.233 83.0693 185.401 82.9547 185.593 82.864C185.785 82.7733 185.99 82.728 186.209 82.728C186.571 82.728 186.854 82.808 187.057 82.968C187.259 83.1227 187.401 83.3333 187.481 83.6C187.566 83.8613 187.609 84.1547 187.609 84.48V87H186.777V84.528C186.777 84.2187 186.718 83.968 186.601 83.776C186.483 83.584 186.262 83.488 185.937 83.488C185.627 83.488 185.371 83.5867 185.169 83.784C184.971 83.976 184.873 84.2107 184.873 84.488V87H184.041V84.512C184.041 84.2133 183.977 83.968 183.849 83.776C183.721 83.584 183.51 83.488 183.217 83.488C183.014 83.488 182.833 83.5333 182.673 83.624C182.513 83.7147 182.387 83.8347 182.297 83.984C182.206 84.128 182.161 84.2907 182.161 84.472V87H181.329V82.8H182.161V83.472C182.289 83.28 182.467 83.1093 182.697 82.96C182.931 82.8053 183.193 82.728 183.481 82.728ZM192.624 82.8V87H191.792V86.352C191.664 86.528 191.474 86.6933 191.224 86.848C190.973 87.0027 190.682 87.08 190.352 87.08C190 87.08 189.677 86.9867 189.384 86.8C189.096 86.6133 188.866 86.3547 188.696 86.024C188.525 85.6933 188.44 85.3147 188.44 84.888C188.44 84.4613 188.528 84.0853 188.704 83.76C188.88 83.4293 189.122 83.1733 189.432 82.992C189.741 82.8053 190.093 82.712 190.488 82.712C190.781 82.712 191.037 82.776 191.256 82.904C191.48 83.032 191.658 83.1813 191.792 83.352V82.8H192.624ZM190.544 86.32C190.8 86.32 191.024 86.2587 191.216 86.136C191.408 86.008 191.557 85.8373 191.664 85.624C191.77 85.4053 191.824 85.16 191.824 84.888C191.824 84.6213 191.77 84.3813 191.664 84.168C191.557 83.9547 191.408 83.7867 191.216 83.664C191.024 83.536 190.8 83.472 190.544 83.472C190.298 83.472 190.08 83.5333 189.888 83.656C189.696 83.7787 189.546 83.9467 189.44 84.16C189.333 84.3733 189.28 84.616 189.28 84.888C189.28 85.16 189.333 85.4053 189.44 85.624C189.546 85.8373 189.696 86.008 189.888 86.136C190.08 86.2587 190.298 86.32 190.544 86.32ZM196.126 83.688C196.073 83.6613 196.006 83.64 195.926 83.624C195.852 83.6027 195.772 83.592 195.686 83.592C195.516 83.592 195.348 83.6373 195.182 83.728C195.017 83.8133 194.878 83.9387 194.766 84.104C194.66 84.264 194.606 84.456 194.606 84.68V87H193.774V82.8H194.606V83.592C194.724 83.336 194.9 83.1253 195.134 82.96C195.374 82.7947 195.625 82.712 195.886 82.712C196.084 82.712 196.236 82.7387 196.342 82.792L196.126 83.688ZM198.501 87H197.677V83.6H196.805V82.8H197.677V81.728H198.501V82.8H199.477V83.6H198.501V87ZM202.419 82.728C202.793 82.728 203.126 82.8213 203.419 83.008C203.718 83.1893 203.953 83.4427 204.123 83.768C204.294 84.0933 204.379 84.4693 204.379 84.896C204.379 85.3173 204.294 85.6933 204.123 86.024C203.953 86.3493 203.721 86.6053 203.427 86.792C203.134 86.9787 202.806 87.072 202.443 87.072C202.145 87.072 201.873 87.008 201.627 86.88C201.387 86.752 201.198 86.6053 201.059 86.44V88.76H200.227V82.792H201.059V83.408C201.182 83.232 201.366 83.0747 201.611 82.936C201.857 82.7973 202.126 82.728 202.419 82.728ZM202.307 83.488C202.057 83.488 201.833 83.5493 201.635 83.672C201.443 83.7947 201.291 83.9627 201.179 84.176C201.073 84.384 201.019 84.624 201.019 84.896C201.019 85.1627 201.073 85.4027 201.179 85.616C201.291 85.8293 201.443 86 201.635 86.128C201.833 86.2507 202.057 86.312 202.307 86.312C202.558 86.312 202.779 86.2507 202.971 86.128C203.163 86 203.313 85.8293 203.419 85.616C203.531 85.4027 203.587 85.1627 203.587 84.896C203.587 84.624 203.531 84.384 203.419 84.176C203.313 83.9627 203.163 83.7947 202.971 83.672C202.779 83.5493 202.558 83.488 202.307 83.488ZM207.474 82.712C207.853 82.712 208.146 82.7893 208.354 82.944C208.562 83.0987 208.706 83.3067 208.786 83.568C208.872 83.8293 208.914 84.12 208.914 84.44V87H208.09V84.496C208.09 84.2933 208.064 84.112 208.01 83.952C207.957 83.792 207.866 83.6667 207.738 83.576C207.61 83.4853 207.432 83.448 207.202 83.464C206.989 83.464 206.8 83.5093 206.634 83.6C206.469 83.6907 206.338 83.8107 206.242 83.96C206.146 84.1093 206.098 84.2747 206.098 84.456V87H205.274V81.08H206.098V83.464C206.226 83.2667 206.413 83.0933 206.658 82.944C206.904 82.7893 207.176 82.712 207.474 82.712ZM214.056 84.896C214.056 85.3227 213.96 85.7013 213.768 86.032C213.581 86.3573 213.325 86.6133 213 86.8C212.68 86.9867 212.32 87.08 211.92 87.08C211.52 87.08 211.157 86.9867 210.832 86.8C210.507 86.6133 210.248 86.3573 210.056 86.032C209.869 85.7013 209.776 85.3227 209.776 84.896C209.776 84.4693 209.869 84.0933 210.056 83.768C210.248 83.4373 210.507 83.1787 210.832 82.992C211.157 82.8053 211.52 82.712 211.92 82.712C212.32 82.712 212.68 82.8053 213 82.992C213.325 83.1787 213.581 83.4373 213.768 83.768C213.96 84.0933 214.056 84.4693 214.056 84.896ZM213.216 84.896C213.221 84.6133 213.165 84.3653 213.048 84.152C212.936 83.9333 212.781 83.7653 212.584 83.648C212.387 83.5253 212.165 83.464 211.92 83.464C211.675 83.464 211.451 83.5253 211.248 83.648C211.051 83.7653 210.893 83.9333 210.776 84.152C210.664 84.3653 210.611 84.6133 210.616 84.896C210.611 85.1733 210.664 85.4213 210.776 85.64C210.893 85.8533 211.051 86.0213 211.248 86.144C211.451 86.2667 211.675 86.328 211.92 86.328C212.165 86.328 212.387 86.2667 212.584 86.144C212.781 86.0213 212.936 85.8533 213.048 85.64C213.165 85.4213 213.221 85.1733 213.216 84.896ZM217.154 82.712C217.533 82.712 217.826 82.7893 218.034 82.944C218.242 83.0987 218.386 83.3067 218.466 83.568C218.551 83.8293 218.594 84.12 218.594 84.44V87H217.77V84.496C217.77 84.2933 217.743 84.112 217.69 83.952C217.637 83.792 217.546 83.6667 217.418 83.576C217.29 83.4853 217.111 83.448 216.882 83.464C216.669 83.464 216.479 83.5093 216.314 83.6C216.149 83.6907 216.018 83.8107 215.922 83.96C215.826 84.1093 215.778 84.2747 215.778 84.456V87H214.954V82.8H215.778V83.464C215.906 83.2667 216.093 83.0933 216.338 82.944C216.583 82.7893 216.855 82.712 217.154 82.712ZM223.32 86.448H223.312C223.141 86.6133 222.906 86.76 222.608 86.888C222.309 87.016 221.997 87.08 221.672 87.08C221.234 87.08 220.848 86.9893 220.512 86.808C220.181 86.6213 219.922 86.368 219.736 86.048C219.549 85.7227 219.456 85.3547 219.456 84.944C219.456 84.4747 219.554 84.0747 219.752 83.744C219.949 83.408 220.21 83.152 220.536 82.976C220.861 82.7947 221.216 82.704 221.6 82.704C221.952 82.704 222.272 82.792 222.56 82.968C222.848 83.1387 223.077 83.376 223.248 83.68C223.418 83.984 223.504 84.3387 223.504 84.744L223.496 85.096H220.28C220.328 85.4747 220.482 85.776 220.744 86C221.01 86.2187 221.346 86.328 221.752 86.328C222.045 86.328 222.282 86.2747 222.464 86.168C222.645 86.056 222.794 85.9493 222.912 85.848L223.32 86.448ZM221.6 83.464C221.285 83.464 221.01 83.5387 220.776 83.688C220.541 83.832 220.386 84.0827 220.312 84.44H222.664V84.384C222.648 84.2027 222.586 84.0427 222.48 83.904C222.378 83.7653 222.25 83.6587 222.096 83.584C221.941 83.504 221.776 83.464 221.6 83.464Z" fill="white" fill-opacity="0.8"/>
</g>
<defs>
<filter id="filter0_d" x="46.1436" y="54.6188" width="35.7128" height="38.7624" filterUnits="userSpaceOnUse" color-interpolation-filters="sRGB">
<feFlood flood-opacity="0" result="BackgroundImageFix"/>
<feColorMatrix in="SourceAlpha" type="matrix" values="0 0 0 0 0 0 0 0 0 0 0 0 0 0 0 0 0 0 127 0"/>
<feOffset dy="2"/>
<feGaussianBlur stdDeviation="2"/>
<feColorMatrix type="matrix" values="0 0 0 0 0 0 0 0 0 0 0 0 0 0 0 0 0 0 0.25 0"/>
<feBlend mode="normal" in2="BackgroundImageFix" result="effect1_dropShadow"/>
<feBlend mode="normal" in="SourceGraphic" in2="effect1_dropShadow" result="shape"/>
</filter>
<filter id="filter1_d" x="28.6911" y="37.7106" width="19.441" height="19.5161" filterUnits="userSpaceOnUse" color-interpolation-filters="sRGB">
<feFlood flood-opacity="0" result="BackgroundImageFix"/>
<feColorMatrix in="SourceAlpha" type="matrix" values="0 0 0 0 0 0 0 0 0 0 0 0 0 0 0 0 0 0 127 0"/>
<feOffset dy="1"/>
<feGaussianBlur stdDeviation="2.5"/>
<feColorMatrix type="matrix" values="0 0 0 0 0 0 0 0 0 0 0 0 0 0 0 0 0 0 0.25 0"/>
<feBlend mode="normal" in2="BackgroundImageFix" result="effect1_dropShadow"/>
<feBlend mode="normal" in="SourceGraphic" in2="effect1_dropShadow" result="shape"/>
</filter>
<filter id="filter2_d" x="79.8679" y="37.7106" width="19.441" height="19.5161" filterUnits="userSpaceOnUse" color-interpolation-filters="sRGB">
<feFlood flood-opacity="0" result="BackgroundImageFix"/>
<feColorMatrix in="SourceAlpha" type="matrix" values="0 0 0 0 0 0 0 0 0 0 0 0 0 0 0 0 0 0 127 0"/>
<feOffset dy="1"/>
<feGaussianBlur stdDeviation="2.5"/>
<feColorMatrix type="matrix" values="0 0 0 0 0 0 0 0 0 0 0 0 0 0 0 0 0 0 0.25 0"/>
<feBlend mode="normal" in2="BackgroundImageFix" result="effect1_dropShadow"/>
<feBlend mode="normal" in="SourceGraphic" in2="effect1_dropShadow" result="shape"/>
</filter>
<filter id="filter3_d" x="28.6911" y="88.6399" width="19.441" height="19.5161" filterUnits="userSpaceOnUse" color-interpolation-filters="sRGB">
<feFlood flood-opacity="0" result="BackgroundImageFix"/>
<feColorMatrix in="SourceAlpha" type="matrix" values="0 0 0 0 0 0 0 0 0 0 0 0 0 0 0 0 0 0 127 0"/>
<feOffset dy="1"/>
<feGaussianBlur stdDeviation="2.5"/>
<feColorMatrix type="matrix" values="0 0 0 0 0 0 0 0 0 0 0 0 0 0 0 0 0 0 0.25 0"/>
<feBlend mode="normal" in2="BackgroundImageFix" result="effect1_dropShadow"/>
<feBlend mode="normal" in="SourceGraphic" in2="effect1_dropShadow" result="shape"/>
</filter>
<filter id="filter4_d" x="79.8679" y="88.7733" width="19.441" height="19.5161" filterUnits="userSpaceOnUse" color-interpolation-filters="sRGB">
<feFlood flood-opacity="0" result="BackgroundImageFix"/>
<feColorMatrix in="SourceAlpha" type="matrix" values="0 0 0 0 0 0 0 0 0 0 0 0 0 0 0 0 0 0 127 0"/>
<feOffset dy="1"/>
<feGaussianBlur stdDeviation="2.5"/>
<feColorMatrix type="matrix" values="0 0 0 0 0 0 0 0 0 0 0 0 0 0 0 0 0 0 0.25 0"/>
<feBlend mode="normal" in2="BackgroundImageFix" result="effect1_dropShadow"/>
<feBlend mode="normal" in="SourceGraphic" in2="effect1_dropShadow" result="shape"/>
</filter>
<filter id="filter5_d" x="106.864" y="57.68" width="109.063" height="25.28" filterUnits="userSpaceOnUse" color-interpolation-filters="sRGB">
<feFlood flood-opacity="0" result="BackgroundImageFix"/>
<feColorMatrix in="SourceAlpha" type="matrix" values="0 0 0 0 0 0 0 0 0 0 0 0 0 0 0 0 0 0 127 0"/>
<feOffset dy="2"/>
<feGaussianBlur stdDeviation="2"/>
<feColorMatrix type="matrix" values="0 0 0 0 0 0 0 0 0 0 0 0 0 0 0 0 0 0 0.2 0"/>
<feBlend mode="normal" in2="BackgroundImageFix" result="effect1_dropShadow"/>
<feBlend mode="normal" in="SourceGraphic" in2="effect1_dropShadow" result="shape"/>
</filter>
<filter id="filter6_d" x="106.784" y="79.08" width="120.72" height="15.76" filterUnits="userSpaceOnUse" color-interpolation-filters="sRGB">
<feFlood flood-opacity="0" result="BackgroundImageFix"/>
<feColorMatrix in="SourceAlpha" type="matrix" values="0 0 0 0 0 0 0 0 0 0 0 0 0 0 0 0 0 0 127 0"/>
<feOffset dy="2"/>
<feGaussianBlur stdDeviation="2"/>
<feColorMatrix type="matrix" values="0 0 0 0 0 0 0 0 0 0 0 0 0 0 0 0 0 0 0.2 0"/>
<feBlend mode="normal" in2="BackgroundImageFix" result="effect1_dropShadow"/>
<feBlend mode="normal" in="SourceGraphic" in2="effect1_dropShadow" result="shape"/>
</filter>
<linearGradient id="paint0_linear" x1="0" y1="0" x2="123.062" y2="218.777" gradientUnits="userSpaceOnUse">
<stop stop-color="#2196F3"/>
<stop offset="1" stop-color="#1976D2"/>
</linearGradient>
</defs>
</svg>
